<svg xmlns="http://www.w3.org/2000/svg" width="820" height="520" viewBox="0 0 820 520">
  <defs>
    <style>text { font-family: 'SF Mono', 'Fira Code', 'Cascadia Code', monospace; }</style>
    <linearGradient id="bg" x1="0" y1="0" x2="0" y2="1">
      <stop offset="0%" stop-color="#0d1117"/>
      <stop offset="100%" stop-color="#080b0f"/>
    </linearGradient>
    <linearGradient id="oppRow" x1="0" y1="0" x2="1" y2="0">
      <stop offset="0%" stop-color="#3fb950" stop-opacity="0.12"/>
      <stop offset="100%" stop-color="#3fb950" stop-opacity="0"/>
    </linearGradient>
    <linearGradient id="hotRow" x1="0" y1="0" x2="1" y2="0">
      <stop offset="0%" stop-color="#f0883e" stop-opacity="0.1"/>
      <stop offset="100%" stop-color="#f0883e" stop-opacity="0"/>
    </linearGradient>
  </defs>

  <rect x="1" y="1" width="818" height="518" rx="10" fill="none" stroke="#21262d" stroke-width="1.5"/>
  <rect width="820" height="520" rx="10" fill="url(#bg)"/>

  <!-- Header -->
  <rect width="820" height="44" rx="10" fill="#111827"/>
  <rect y="34" width="820" height="10" fill="#111827"/>
  <circle cx="22" cy="22" r="7" fill="#ff5f57"/>
  <circle cx="44" cy="22" r="7" fill="#febc2e"/>
  <circle cx="66" cy="22" r="7" fill="#28c840"/>
  <text x="410" y="27" text-anchor="middle" fill="#6b7280" font-size="12" letter-spacing="2">OMEN  ·  POLYMARKET PREDICTION SCANNER</text>

  <!-- Status bar -->
  <rect x="16" y="56" width="788" height="30" rx="5" fill="#161b22"/>
  <text x="28" y="76" fill="#3fb950" font-size="11">● LIVE</text>
  <text x="72" y="76" fill="#484f58" font-size="11">|</text>
  <text x="85" y="76" fill="#8b949e" font-size="11">247 markets scanned</text>
  <text x="238" y="76" fill="#484f58" font-size="11">|</text>
  <text x="251" y="76" fill="#f0883e" font-size="11">12 opportunities</text>
  <text x="376" y="76" fill="#484f58" font-size="11">|</text>
  <text x="389" y="76" fill="#8b949e" font-size="11">model accuracy: 71.4%</text>
  <text x="560" y="76" fill="#484f58" font-size="11">|</text>
  <text x="573" y="76" fill="#8b949e" font-size="11">open positions: 4</text>
  <text x="770" y="76" fill="#484f58" font-size="11" text-anchor="end">PAPER</text>

  <!-- Column headers -->
  <rect x="16" y="96" width="788" height="1" fill="#21262d"/>
  <text x="28" y="112" fill="#484f58" font-size="10" letter-spacing="1">MARKET</text>
  <text x="380" y="112" fill="#484f58" font-size="10" letter-spacing="1">POLY%</text>
  <text x="450" y="112" fill="#484f58" font-size="10" letter-spacing="1">AI%</text>
  <text x="520" y="112" fill="#484f58" font-size="10" letter-spacing="1">EDGE</text>
  <text x="590" y="112" fill="#484f58" font-size="10" letter-spacing="1">VOLUME</text>
  <text x="690" y="112" fill="#484f58" font-size="10" letter-spacing="1">CLOSES</text>
  <rect x="16" y="116" width="788" height="1" fill="#21262d"/>

  <!-- Row 1 — OPPORTUNITY -->
  <rect x="16" y="120" width="788" height="44" rx="4" fill="url(#oppRow)"/>
  <rect x="16" y="120" width="3" height="44" rx="2" fill="#3fb950"/>
  <text x="28" y="138" fill="#e6edf3" font-size="12" font-weight="bold">Will Trump sign the crypto bill before July 2026?</text>
  <text x="28" y="156" fill="#484f58" font-size="10">Politics · US Crypto Policy</text>
  <text x="380" y="147" fill="#8b949e" font-size="12">34%</text>
  <text x="450" y="147" fill="#3fb950" font-size="12" font-weight="bold">51%</text>
  <text x="520" y="138" fill="#3fb950" font-size="12" font-weight="bold">+17%</text>
  <text x="520" y="154" fill="#3fb950" font-size="10">▲ BUY YES</text>
  <text x="590" y="147" fill="#8b949e" font-size="11">$2.1M</text>
  <text x="690" y="147" fill="#8b949e" font-size="11">87d</text>

  <!-- Row 2 -->
  <text x="28" y="182" fill="#8b949e" font-size="12">Will ETH hit $5K before end of 2026?</text>
  <text x="380" y="182" fill="#8b949e" font-size="12">62%</text>
  <text x="450" y="182" fill="#8b949e" font-size="12">59%</text>
  <text x="520" y="182" fill="#484f58" font-size="12">-3%</text>
  <text x="590" y="182" fill="#8b949e" font-size="11">$890K</text>
  <text x="690" y="182" fill="#8b949e" font-size="11">271d</text>
  <rect x="16" y="190" width="788" height="1" fill="#161b22"/>

  <!-- Row 3 — OPPORTUNITY -->
  <rect x="16" y="194" width="788" height="44" rx="4" fill="url(#oppRow)"/>
  <rect x="16" y="194" width="3" height="44" rx="2" fill="#3fb950"/>
  <text x="28" y="212" fill="#e6edf3" font-size="12" font-weight="bold">Will Fed cut rates in June 2026?</text>
  <text x="28" y="230" fill="#484f58" font-size="10">Finance · Federal Reserve</text>
  <text x="380" y="221" fill="#8b949e" font-size="12">28%</text>
  <text x="450" y="221" fill="#3fb950" font-size="12" font-weight="bold">44%</text>
  <text x="520" y="212" fill="#3fb950" font-size="12" font-weight="bold">+16%</text>
  <text x="520" y="228" fill="#3fb950" font-size="10">▲ BUY YES</text>
  <text x="590" y="221" fill="#8b949e" font-size="11">$4.7M</text>
  <text x="690" y="221" fill="#8b949e" font-size="11">54d</text>

  <!-- Row 4 — HOT/CLOSING -->
  <rect x="16" y="242" width="788" height="44" rx="4" fill="url(#hotRow)"/>
  <rect x="16" y="242" width="3" height="44" rx="2" fill="#f0883e"/>
  <text x="28" y="260" fill="#e6edf3" font-size="12">Will BTC reach $150K in April 2026?</text>
  <text x="28" y="278" fill="#484f58" font-size="10">Crypto · Bitcoin</text>
  <text x="380" y="269" fill="#8b949e" font-size="12">71%</text>
  <text x="450" y="269" fill="#8b949e" font-size="12">68%</text>
  <text x="520" y="269" fill="#484f58" font-size="12">-3%</text>
  <text x="590" y="269" fill="#8b949e" font-size="11">$12.4M</text>
  <text x="690" y="260" fill="#f0883e" font-size="11" font-weight="bold">3d</text>
  <text x="690" y="276" fill="#f0883e" font-size="10">CLOSING</text>

  <!-- Row 5 -->
  <text x="28" y="306" fill="#8b949e" font-size="12">Will Apple release AR glasses in 2026?</text>
  <text x="380" y="306" fill="#8b949e" font-size="12">41%</text>
  <text x="450" y="306" fill="#8b949e" font-size="12">38%</text>
  <text x="520" y="306" fill="#484f58" font-size="12">-3%</text>
  <text x="590" y="306" fill="#8b949e" font-size="11">$340K</text>
  <text x="690" y="306" fill="#8b949e" font-size="11">180d</text>
  <rect x="16" y="314" width="788" height="1" fill="#161b22"/>

  <!-- Row 6 — OPPORTUNITY -->
  <rect x="16" y="318" width="788" height="44" rx="4" fill="url(#oppRow)"/>
  <rect x="16" y="318" width="3" height="44" rx="2" fill="#3fb950"/>
  <text x="28" y="336" fill="#e6edf3" font-size="12" font-weight="bold">Will Solana flip Ethereum by TVL in 2026?</text>
  <text x="28" y="354" fill="#484f58" font-size="10">Crypto · DeFi</text>
  <text x="380" y="345" fill="#8b949e" font-size="12">19%</text>
  <text x="450" y="345" fill="#3fb950" font-size="12" font-weight="bold">31%</text>
  <text x="520" y="336" fill="#3fb950" font-size="12" font-weight="bold">+12%</text>
  <text x="520" y="352" fill="#3fb950" font-size="10">▲ BUY YES</text>
  <text x="590" y="345" fill="#8b949e" font-size="11">$1.8M</text>
  <text x="690" y="345" fill="#8b949e" font-size="11">271d</text>

  <!-- Agent reasoning strip -->
  <rect x="16" y="374" width="788" height="30" rx="5" fill="#111827"/>
  <text x="28" y="394" fill="#484f58" font-size="10" letter-spacing="1">CLAUDE AGENT</text>
  <text x="120" y="394" fill="#484f58" font-size="11">|</text>
  <text x="133" y="394" fill="#8b949e" font-size="11">Scanning for edge > 10% · Confidence threshold: 0.68 · Kelly sizing active</text>
  <text x="770" y="394" fill="#3fb950" font-size="11" text-anchor="end">● thinking</text>

  <!-- Footer -->
  <rect x="0" y="416" width="820" height="28" rx="0" fill="#0a0e14"/>
  <rect x="0" y="416" width="820" height="1" fill="#21262d"/>
  <rect x="0" y="508" width="820" height="12" rx="10" fill="#0a0e14"/>
  <text x="28" y="435" fill="#484f58" font-size="10">Claude Sonnet 4.5  ·  Polymarket CLOB API  ·  Bun 1.2</text>
  <text x="792" y="435" fill="#484f58" font-size="10" text-anchor="end">github.com/OmenLabs/omen</text>
</svg>
