<svg width="900" height="520" xmlns="http://www.w3.org/2000/svg" viewBox="0 0 900 520">
  <defs>
    <linearGradient id="quantBg" x1="0%" y1="0%" x2="100%" y2="100%">
      <stop offset="0%" style="stop-color:#060a10;stop-opacity:1"/>
      <stop offset="100%" style="stop-color:#030608;stop-opacity:1"/>
    </linearGradient>
    <linearGradient id="kellyFill" x1="0%" y1="0%" x2="0%" y2="100%">
      <stop offset="0%" style="stop-color:#f59e0b;stop-opacity:0.25"/>
      <stop offset="100%" style="stop-color:#f59e0b;stop-opacity:0"/>
    </linearGradient>
    <linearGradient id="edgeFill" x1="0%" y1="0%" x2="0%" y2="100%">
      <stop offset="0%" style="stop-color:#22c55e;stop-opacity:0.2"/>
      <stop offset="100%" style="stop-color:#22c55e;stop-opacity:0"/>
    </linearGradient>
  </defs>

  <rect width="900" height="520" fill="url(#quantBg)"/>

  <!-- ═══════════════════════════════════════════════════════════ -->
  <!-- PANEL 1: Kelly Curve (top-left) -->
  <!-- ═══════════════════════════════════════════════════════════ -->
  <rect x="30" y="30" width="380" height="220" rx="4" fill="#080c14" stroke="#1e2d40" stroke-width="1"/>
  <text x="220" y="52" font-family="'Courier New', monospace" font-size="10" fill="#f59e0b" text-anchor="middle" letter-spacing="2">KELLY OPTIMAL FRACTION  f*</text>

  <!-- Y axis -->
  <line x1="80" y1="65" x2="80" y2="215" stroke="#1e2d40" stroke-width="1"/>
  <!-- X axis -->
  <line x1="80" y1="215" x2="390" y2="215" stroke="#1e2d40" stroke-width="1"/>

  <!-- Grid lines -->
  <line x1="80" y1="165" x2="390" y2="165" stroke="#1e2d40" stroke-width="0.5" stroke-dasharray="2,3"/>
  <line x1="80" y1="115" x2="390" y2="115" stroke="#1e2d40" stroke-width="0.5" stroke-dasharray="2,3"/>
  <line x1="80" y1="90" x2="390" y2="90" stroke="#1e2d40" stroke-width="0.5" stroke-dasharray="2,3"/>
  <line x1="185" y1="65" x2="185" y2="215" stroke="#1e2d40" stroke-width="0.5" stroke-dasharray="2,3"/>
  <line x1="290" y1="65" x2="290" y2="215" stroke="#1e2d40" stroke-width="0.5" stroke-dasharray="2,3"/>

  <!-- Y axis labels -->
  <text x="74" y="220" font-family="'Courier New', monospace" font-size="8" fill="#ffffff30" text-anchor="end">0</text>
  <text x="74" y="170" font-family="'Courier New', monospace" font-size="8" fill="#ffffff30" text-anchor="end">0.05</text>
  <text x="74" y="120" font-family="'Courier New', monospace" font-size="8" fill="#ffffff30" text-anchor="end">0.10</text>
  <text x="74" y="95" font-family="'Courier New', monospace" font-size="8" fill="#ffffff30" text-anchor="end">0.15</text>
  <text x="72" y="70" font-family="'Courier New', monospace" font-size="8" fill="#ffffff30" text-anchor="end">f*</text>

  <!-- X axis labels -->
  <text x="80" y="227" font-family="'Courier New', monospace" font-size="8" fill="#ffffff30" text-anchor="middle">-10%</text>
  <text x="185" y="227" font-family="'Courier New', monospace" font-size="8" fill="#ffffff30" text-anchor="middle">0%</text>
  <text x="290" y="227" font-family="'Courier New', monospace" font-size="8" fill="#ffffff30" text-anchor="middle">+10%</text>
  <text x="380" y="227" font-family="'Courier New', monospace" font-size="8" fill="#ffffff30" text-anchor="middle">+20%</text>
  <text x="235" y="240" font-family="'Courier New', monospace" font-size="8" fill="#ffffff20" text-anchor="middle">edge  (p_model - p_implied)</text>

  <!-- Zero edge line -->
  <line x1="185" y1="65" x2="185" y2="215" stroke="#ef4444" stroke-width="1" opacity="0.5"/>
  <text x="187" y="75" font-family="'Courier New', monospace" font-size="7" fill="#ef4444">no edge</text>

  <!-- Negative edge zone -->
  <rect x="80" y="65" width="105" height="150" fill="#ef4444" opacity="0.04"/>
  <text x="132" y="150" font-family="'Courier New', monospace" font-size="8" fill="#ef444450" text-anchor="middle">NO TRADE</text>

  <!-- Kelly curve - rises from zero at x=185, peaks around x=340 -->
  <path d="M80,215 L185,215 Q220,215 250,190 Q280,165 310,120 Q330,100 350,92 Q360,89 370,88"
        fill="url(#kellyFill)" stroke="none"/>
  <path d="M185,215 Q220,215 250,190 Q280,165 310,120 Q330,100 350,92 Q360,89 370,88"
        fill="none" stroke="#f59e0b" stroke-width="2"/>

  <!-- Fractional Kelly line at 0.15 -->
  <line x1="80" y1="90" x2="390" y2="90" stroke="#22c55e" stroke-width="1.5" stroke-dasharray="4,2"/>
  <text x="392" y="94" font-family="'Courier New', monospace" font-size="8" fill="#22c55e">0.15×</text>

  <!-- Peak annotation -->
  <circle cx="352" cy="91" r="4" fill="#f59e0b" opacity="0.8"/>
  <line x1="352" y1="91" x2="352" y2="215" stroke="#f59e0b" stroke-width="1" stroke-dasharray="2,2" opacity="0.4"/>
  <text x="354" y="87" font-family="'Courier New', monospace" font-size="7" fill="#f59e0b">f*=0.15 (capped)</text>

  <!-- ═══════════════════════════════════════════════════════════ -->
  <!-- PANEL 2: Calibration Chart (top-right) -->
  <!-- ═══════════════════════════════════════════════════════════ -->
  <rect x="430" y="30" width="440" height="220" rx="4" fill="#080c14" stroke="#1e2d40" stroke-width="1"/>
  <text x="650" y="52" font-family="'Courier New', monospace" font-size="10" fill="#60a5fa" text-anchor="middle" letter-spacing="2">CALIBRATION  —  RELIABILITY DIAGRAM</text>

  <!-- axes -->
  <line x1="480" y1="65" x2="480" y2="215" stroke="#1e2d40" stroke-width="1"/>
  <line x1="480" y1="215" x2="840" y2="215" stroke="#1e2d40" stroke-width="1"/>

  <!-- diagonal perfect calibration -->
  <line x1="480" y1="215" x2="840" y2="65" stroke="#ffffff" stroke-width="1" stroke-dasharray="4,3" opacity="0.3"/>
  <text x="835" y="62" font-family="'Courier New', monospace" font-size="7" fill="#ffffff30" text-anchor="end">perfect</text>

  <!-- Grid -->
  <line x1="480" y1="165" x2="840" y2="165" stroke="#1e2d40" stroke-width="0.5" stroke-dasharray="2,3"/>
  <line x1="480" y1="115" x2="840" y2="115" stroke="#1e2d40" stroke-width="0.5" stroke-dasharray="2,3"/>
  <line x1="560" y1="65" x2="560" y2="215" stroke="#1e2d40" stroke-width="0.5" stroke-dasharray="2,3"/>
  <line x1="660" y1="65" x2="660" y2="215" stroke="#1e2d40" stroke-width="0.5" stroke-dasharray="2,3"/>
  <line x1="750" y1="65" x2="750" y2="215" stroke="#1e2d40" stroke-width="0.5" stroke-dasharray="2,3"/>

  <!-- Axis labels -->
  <text x="476" y="220" font-family="'Courier New', monospace" font-size="7" fill="#ffffff30" text-anchor="middle">0.2</text>
  <text x="560" y="228" font-family="'Courier New', monospace" font-size="7" fill="#ffffff30" text-anchor="middle">0.4</text>
  <text x="660" y="228" font-family="'Courier New', monospace" font-size="7" fill="#ffffff30" text-anchor="middle">0.6</text>
  <text x="750" y="228" font-family="'Courier New', monospace" font-size="7" fill="#ffffff30" text-anchor="middle">0.8</text>
  <text x="660" y="242" font-family="'Courier New', monospace" font-size="8" fill="#ffffff20" text-anchor="middle">predicted probability</text>
  <text x="471" y="170" font-family="'Courier New', monospace" font-size="7" fill="#ffffff30" text-anchor="end">0.4</text>
  <text x="471" y="120" font-family="'Courier New', monospace" font-size="7" fill="#ffffff30" text-anchor="end">0.6</text>
  <text x="471" y="70" font-family="'Courier New', monospace" font-size="7" fill="#ffffff30" text-anchor="end">0.8</text>

  <!-- Crypto calibration line (green, near diagonal) -->
  <polyline points="490,208 560,163 650,115 740,73 810,67" fill="none" stroke="#22c55e" stroke-width="2"/>
  <text x="815" y="68" font-family="'Courier New', monospace" font-size="8" fill="#22c55e">Crypto  B=0.18</text>

  <!-- Political calibration (amber, above diagonal = overconfident) -->
  <polyline points="490,200 555,148 645,95 738,60 800,55" fill="none" stroke="#f59e0b" stroke-width="2"/>
  <text x="805" y="56" font-family="'Courier New', monospace" font-size="8" fill="#f59e0b">Political  B=0.24</text>

  <!-- Protocol events (cyan, tight) -->
  <polyline points="500,205 570,155 660,108 745,70 808,63" fill="none" stroke="#22d3ee" stroke-width="2"/>
  <text x="813" y="90" font-family="'Courier New', monospace" font-size="8" fill="#22d3ee">Protocol  B=0.14</text>

  <!-- ═══════════════════════════════════════════════════════════ -->
  <!-- PANEL 3: Edge Distribution (bottom, full width) -->
  <!-- ═══════════════════════════════════════════════════════════ -->
  <rect x="30" y="275" width="840" height="200" rx="4" fill="#080c14" stroke="#1e2d40" stroke-width="1"/>
  <text x="450" y="296" font-family="'Courier New', monospace" font-size="10" fill="#a78bfa" text-anchor="middle" letter-spacing="2">EDGE DISTRIBUTION  —  209 POSITIONS  (p_model − p_implied)</text>

  <!-- X axis -->
  <line x1="80" y1="440" x2="820" y2="440" stroke="#1e2d40" stroke-width="1"/>

  <!-- Zero line -->
  <line x1="380" y1="310" x2="380" y2="440" stroke="#ef4444" stroke-width="1.5"/>
  <text x="382" y="315" font-family="'Courier New', monospace" font-size="8" fill="#ef4444">break-even</text>

  <!-- Mean line -->
  <line x1="480" y1="310" x2="480" y2="440" stroke="#22c55e" stroke-width="1.5" stroke-dasharray="4,2"/>
  <text x="482" y="315" font-family="'Courier New', monospace" font-size="8" fill="#22c55e">μ = +4.2%</text>

  <!-- Histogram bars (left side, negative — no trade zone) -->
  <rect x="100" y="420" width="28" height="20" fill="#ef4444" opacity="0.4"/>
  <rect x="134" y="410" width="28" height="30" fill="#ef4444" opacity="0.4"/>
  <rect x="168" y="398" width="28" height="42" fill="#ef4444" opacity="0.4"/>
  <rect x="202" y="385" width="28" height="55" fill="#ef4444" opacity="0.4"/>
  <rect x="236" y="375" width="28" height="65" fill="#ef4444" opacity="0.4"/>
  <rect x="270" y="368" width="28" height="72" fill="#ef4444" opacity="0.35"/>
  <rect x="304" y="360" width="28" height="80" fill="#ef4444" opacity="0.3"/>
  <rect x="338" y="355" width="28" height="85" fill="#ef4444" opacity="0.25"/>

  <!-- Green tradeable zone label -->
  <rect x="382" y="455" width="200" height="14" rx="3" fill="#22c55e" opacity="0.15"/>
  <text x="482" y="465" font-family="'Courier New', monospace" font-size="8" fill="#22c55e" text-anchor="middle">tradeable edge zone</text>

  <!-- Histogram bars (right side, positive — tradeable) -->
  <rect x="378" y="342" width="28" height="98" fill="#22c55e" opacity="0.35"/>
  <rect x="412" y="330" width="28" height="110" fill="#22c55e" opacity="0.4"/>
  <rect x="446" y="320" width="28" height="120" fill="#22c55e" opacity="0.45"/>
  <rect x="480" y="316" width="28" height="124" fill="#22c55e" opacity="0.5"/>
  <rect x="514" y="322" width="28" height="118" fill="#22c55e" opacity="0.45"/>
  <rect x="548" y="332" width="28" height="108" fill="#22c55e" opacity="0.4"/>
  <rect x="582" y="345" width="28" height="95" fill="#22c55e" opacity="0.35"/>
  <rect x="616" y="362" width="28" height="78" fill="#22c55e" opacity="0.3"/>
  <rect x="650" y="380" width="28" height="60" fill="#22c55e" opacity="0.25"/>
  <rect x="684" y="400" width="28" height="40" fill="#22c55e" opacity="0.2"/>
  <rect x="718" y="418" width="28" height="22" fill="#22c55e" opacity="0.15"/>
  <rect x="752" y="428" width="28" height="12" fill="#22c55e" opacity="0.1"/>

  <!-- X axis labels -->
  <text x="380" y="453" font-family="'Courier New', monospace" font-size="8" fill="#ef4444" text-anchor="middle">0%</text>
  <text x="245" y="453" font-family="'Courier New', monospace" font-size="8" fill="#ffffff30" text-anchor="middle">-15%</text>
  <text x="615" y="453" font-family="'Courier New', monospace" font-size="8" fill="#ffffff30" text-anchor="middle">+15%</text>
  <text x="760" y="453" font-family="'Courier New', monospace" font-size="8" fill="#ffffff30" text-anchor="middle">+25%</text>

  <!-- Footer -->
  <text x="450" y="505" font-family="'Courier New', monospace" font-size="8" fill="#ffffff12" text-anchor="middle">OMEN  •  POLYMARKET PREDICTION ENGINE  •  KELLY CRITERION + BRIER CALIBRATION  •  CLAUDE AGENT SDK</text>
</svg>
